<svg viewBox="0 0 1440 720" xmlns="http://www.w3.org/2000/svg"><mask id="b" x="0" y="0" width="1440" height="720"><path fill="url(#a)" d="M0 0h1440v720H0z"/></mask><g style="transform-origin:center center" stroke="#e6e6e6e8" stroke-width="1.44" fill="none" mask="url(#b)"><path d="M0 0h72v72H0zM72 0h72v72H72zM144 0h72v72h-72zM216 0h72v72h-72zM288 0h72v72h-72zM360 0h72v72h-72zM432 0h72v72h-72zM504 0h72v72h-72zM576 0h72v72h-72zM648 0h72v72h-72zM720 0h72v72h-72zM792 0h72v72h-72zM864 0h72v72h-72zM936 0h72v72h-72zM1008 0h72v72h-72zM1080 0h72v72h-72zM1152 0h72v72h-72zM1224 0h72v72h-72zM1296 0h72v72h-72zM1368 0h72v72h-72zM0 72h72v72H0zM72 72h72v72H72zM144 72h72v72h-72zM216 72h72v72h-72zM288 72h72v72h-72zM360 72h72v72h-72zM432 72h72v72h-72zM504 72h72v72h-72zM576 72h72v72h-72zM648 72h72v72h-72zM720 72h72v72h-72zM792 72h72v72h-72zM864 72h72v72h-72zM936 72h72v72h-72zM1008 72h72v72h-72zM1080 72h72v72h-72zM1152 72h72v72h-72zM1224 72h72v72h-72zM1296 72h72v72h-72zM1368 72h72v72h-72zM0 144h72v72H0zM72 144h72v72H72zM144 144h72v72h-72zM216 144h72v72h-72zM288 144h72v72h-72zM360 144h72v72h-72zM432 144h72v72h-72zM504 144h72v72h-72zM576 144h72v72h-72zM648 144h72v72h-72zM720 144h72v72h-72zM792 144h72v72h-72zM864 144h72v72h-72zM936 144h72v72h-72zM1008 144h72v72h-72zM1080 144h72v72h-72zM1152 144h72v72h-72zM1224 144h72v72h-72zM1296 144h72v72h-72zM1368 144h72v72h-72zM0 216h72v72H0zM72 216h72v72H72zM144 216h72v72h-72zM216 216h72v72h-72zM288 216h72v72h-72zM360 216h72v72h-72zM432 216h72v72h-72zM504 216h72v72h-72zM576 216h72v72h-72zM648 216h72v72h-72zM720 216h72v72h-72zM792 216h72v72h-72zM864 216h72v72h-72zM936 216h72v72h-72zM1008 216h72v72h-72zM1080 216h72v72h-72zM1152 216h72v72h-72zM1224 216h72v72h-72zM1296 216h72v72h-72zM1368 216h72v72h-72zM0 288h72v72H0zM72 288h72v72H72zM144 288h72v72h-72zM216 288h72v72h-72zM288 288h72v72h-72zM360 288h72v72h-72zM432 288h72v72h-72zM504 288h72v72h-72zM576 288h72v72h-72zM648 288h72v72h-72zM720 288h72v72h-72zM792 288h72v72h-72zM864 288h72v72h-72zM936 288h72v72h-72zM1008 288h72v72h-72zM1080 288h72v72h-72zM1152 288h72v72h-72zM1224 288h72v72h-72zM1296 288h72v72h-72zM1368 288h72v72h-72zM0 360h72v72H0zM72 360h72v72H72zM144 360h72v72h-72zM216 360h72v72h-72zM288 360h72v72h-72zM360 360h72v72h-72zM432 360h72v72h-72zM504 360h72v72h-72zM576 360h72v72h-72zM648 360h72v72h-72zM720 360h72v72h-72zM792 360h72v72h-72zM864 360h72v72h-72zM936 360h72v72h-72zM1008 360h72v72h-72zM1080 360h72v72h-72zM1152 360h72v72h-72zM1224 360h72v72h-72zM1296 360h72v72h-72zM1368 360h72v72h-72zM0 432h72v72H0zM72 432h72v72H72zM144 432h72v72h-72zM216 432h72v72h-72zM288 432h72v72h-72zM360 432h72v72h-72zM432 432h72v72h-72zM504 432h72v72h-72zM576 432h72v72h-72zM648 432h72v72h-72zM720 432h72v72h-72zM792 432h72v72h-72zM864 432h72v72h-72zM936 432h72v72h-72zM1008 432h72v72h-72zM1080 432h72v72h-72zM1152 432h72v72h-72zM1224 432h72v72h-72zM1296 432h72v72h-72zM1368 432h72v72h-72zM0 504h72v72H0zM72 504h72v72H72zM144 504h72v72h-72zM216 504h72v72h-72zM288 504h72v72h-72zM360 504h72v72h-72zM432 504h72v72h-72zM504 504h72v72h-72zM576 504h72v72h-72zM648 504h72v72h-72zM720 504h72v72h-72zM792 504h72v72h-72zM864 504h72v72h-72zM936 504h72v72h-72zM1008 504h72v72h-72zM1080 504h72v72h-72zM1152 504h72v72h-72zM1224 504h72v72h-72zM1296 504h72v72h-72zM1368 504h72v72h-72zM0 576h72v72H0zM72 576h72v72H72zM144 576h72v72h-72zM216 576h72v72h-72zM288 576h72v72h-72zM360 576h72v72h-72zM432 576h72v72h-72zM504 576h72v72h-72zM576 576h72v72h-72zM648 576h72v72h-72zM720 576h72v72h-72zM792 576h72v72h-72zM864 576h72v72h-72zM936 576h72v72h-72zM1008 576h72v72h-72zM1080 576h72v72h-72zM1152 576h72v72h-72zM1224 576h72v72h-72zM1296 576h72v72h-72zM1368 576h72v72h-72zM0 648h72v72H0zM72 648h72v72H72zM144 648h72v72h-72zM216 648h72v72h-72zM288 648h72v72h-72zM360 648h72v72h-72zM432 648h72v72h-72zM504 648h72v72h-72zM576 648h72v72h-72zM648 648h72v72h-72zM720 648h72v72h-72zM792 648h72v72h-72zM864 648h72v72h-72zM936 648h72v72h-72zM1008 648h72v72h-72zM1080 648h72v72h-72zM1152 648h72v72h-72zM1224 648h72v72h-72zM1296 648h72v72h-72zM1368 648h72v72h-72z"/></g><defs><radialGradient id="a"><stop offset="0" stop-color="#fff"/><stop offset="1" stop-color="#fff" stop-opacity="0"/></radialGradient></defs></svg>